<?xml version="1.0" standalone="no"?>
<!DOCTYPE svg PUBLIC "-//W3C//DTD SVG 20010904//EN"
 "http://www.w3.org/TR/2001/REC-SVG-20010904/DTD/svg10.dtd">
<svg version="1.0" xmlns="http://www.w3.org/2000/svg"
 width="478.000000pt" height="255.000000pt" viewBox="0 0 478.000000 255.000000"
 preserveAspectRatio="xMidYMid meet">

<g transform="translate(0.000000,255.000000) scale(0.100000,-0.100000)"
fill="#000000" stroke="none">
<path d="M1362 1961 c-61 -29 -144 -112 -201 -200 -58 -91 -150 -272 -181
-358 -22 -61 -24 -63 -78 -83 -124 -47 -195 -45 -246 7 -32 32 -40 59 -34 123
7 74 45 120 160 197 115 77 129 94 101 132 -44 58 -177 28 -262 -59 -65 -67
-94 -139 -98 -245 -4 -75 -1 -96 15 -125 27 -50 87 -89 147 -96 52 -6 165 16
218 43 16 8 31 12 33 10 3 -3 -10 -45 -29 -93 -19 -49 -47 -129 -63 -177 -31
-95 -28 -106 22 -107 28 0 36 10 75 107 34 81 69 133 90 133 13 0 9 -19 -26
-119 -17 -48 -28 -105 -32 -160 -5 -81 -4 -88 18 -114 13 -14 37 -29 52 -33
24 -6 34 0 71 38 25 27 62 85 90 144 115 239 106 223 106 186 0 -35 45 -92 72
-92 46 0 151 111 208 222 23 44 42 69 56 72 12 3 28 8 36 11 10 4 3 -29 -23
-107 -91 -280 -94 -570 -5 -592 15 -4 36 -2 47 4 32 18 89 115 149 253 l55
128 5 -43 c7 -56 15 -68 48 -68 40 0 63 20 141 123 97 130 96 129 96 47 0 -83
23 -123 74 -128 26 -3 40 6 92 55 34 32 72 77 86 101 14 24 27 41 29 39 2 -2
-10 -49 -26 -106 -40 -139 -53 -219 -48 -301 3 -56 8 -74 28 -95 31 -33 70
-32 110 1 37 31 47 49 119 219 77 179 71 170 108 149 27 -16 34 -16 64 -4 19
8 55 34 82 59 l47 44 -19 -44 c-62 -139 -10 -249 89 -192 31 18 124 122 172
193 l17 25 0 -52 c1 -44 5 -55 25 -68 22 -15 28 -15 61 0 21 8 80 57 132 108
52 50 92 85 89 77 -3 -8 -21 -73 -41 -143 l-35 -128 -91 -87 c-116 -110 -218
-237 -266 -331 -50 -97 -57 -187 -21 -241 29 -42 61 -60 111 -60 113 0 205
127 297 410 26 80 60 199 76 264 22 92 34 124 54 142 31 27 116 95 193 152
l57 43 0 -55 c0 -55 0 -55 -45 -81 -58 -34 -146 -130 -176 -192 -27 -56 -37
-154 -20 -205 28 -86 118 -120 204 -79 54 26 92 78 119 163 18 56 19 80 14
210 l-6 146 33 11 c17 7 57 14 87 17 47 5 59 3 83 -16 l29 -23 -7 -91 c-6 -77
-4 -94 8 -105 37 -30 77 16 77 90 0 120 -101 185 -243 156 l-67 -14 0 73 0 73
51 58 c29 32 61 78 71 102 20 43 20 44 0 70 -16 21 -28 26 -61 25 -73 -1 -119
-71 -140 -214 -12 -79 -17 -86 -101 -152 -130 -100 -165 -126 -167 -124 -1 1
12 57 30 125 31 120 31 123 12 137 -45 33 -73 13 -190 -134 -72 -91 -115 -118
-115 -72 0 40 98 209 173 298 41 49 48 89 19 115 -60 54 -141 -23 -246 -231
-21 -41 -54 -97 -74 -125 -20 -29 -49 -72 -65 -97 -33 -50 -97 -120 -109 -120
-27 0 7 95 72 198 14 22 13 25 -13 48 -56 48 -71 44 -151 -35 -111 -110 -123
-96 -46 57 47 94 131 202 157 202 27 0 55 -37 56 -73 2 -60 27 -39 27 23 0 42
-9 59 -41 75 -41 22 -105 18 -157 -7 -89 -45 -195 -196 -205 -293 -2 -22 -16
-62 -32 -90 -16 -27 -54 -110 -84 -184 -56 -134 -79 -167 -102 -144 -34 34
-13 195 47 358 95 259 254 586 330 678 13 16 24 40 24 53 0 36 -27 94 -43 94
-35 0 -126 -139 -238 -361 l-59 -119 -26 16 c-34 23 -120 22 -169 -2 -53 -25
-106 -80 -146 -152 -42 -74 -218 -294 -230 -286 -29 17 24 150 107 269 29 42
43 71 40 83 -8 25 -63 55 -89 48 -27 -6 -74 -83 -112 -181 -15 -38 -42 -101
-60 -140 -18 -38 -56 -123 -85 -187 -64 -144 -74 -154 -96 -102 -32 77 -2 251
83 474 66 173 83 200 162 253 149 99 296 269 308 354 10 78 -60 106 -156 63
-98 -45 -258 -245 -357 -447 -43 -88 -66 -113 -103 -113 -5 0 -8 27 -7 60 1
51 -2 63 -25 85 -36 37 -81 36 -119 0 -17 -16 -30 -34 -30 -40 0 -6 -12 -22
-26 -36 -38 -35 -106 -150 -159 -264 -98 -215 -156 -314 -195 -335 -16 -8 -22
-6 -35 13 -13 20 -14 33 -4 78 15 73 58 163 107 228 25 33 38 60 35 70 -21 57
-89 70 -143 25 -17 -15 -33 -25 -35 -22 -2 2 15 46 39 98 34 76 50 99 77 114
75 43 221 160 285 229 125 133 162 244 103 303 -36 36 -99 42 -157 15z m146
-53 c31 -31 3 -118 -67 -204 -64 -81 -311 -280 -311 -252 0 17 136 273 179
337 56 82 113 131 154 131 18 0 38 -5 45 -12z m740 -53 c4 -29 -63 -134 -135
-215 -58 -63 -180 -157 -191 -146 -6 7 60 125 122 216 71 107 139 172 174 168
18 -2 28 -10 30 -23z m1807 -405 c3 -10 1 -30 -6 -42 -16 -31 -80 -110 -85
-105 -7 7 17 110 32 140 17 32 50 36 59 7z m-2437 -24 c2 -16 1 -44 -3 -63 -5
-26 -11 -33 -28 -33 -47 0 -61 45 -31 101 20 40 57 37 62 -5z m912 -61 c20
-24 7 -104 -26 -155 -42 -66 -128 -162 -163 -183 l-31 -18 0 29 c0 45 29 131
72 215 57 109 114 152 148 112z m-978 -139 c-65 -122 -140 -188 -159 -140 -11
29 17 118 57 180 l40 61 49 -16 50 -16 -37 -69z m2314 -222 c13 -51 -2 -226
-25 -285 -31 -80 -78 -132 -120 -131 -57 1 -91 50 -91 130 0 87 70 194 190
291 33 27 38 26 46 -5z m-465 -297 c-118 -404 -209 -552 -288 -465 -13 15 -18
36 -18 78 1 106 95 259 268 437 34 34 63 61 65 59 2 -2 -11 -51 -27 -109z"/>
<path d="M3000 1756 c0 -186 5 -211 35 -186 10 9 15 33 15 76 l0 64 30 0 30 0
0 -70 c0 -68 1 -70 25 -70 l25 0 -2 183 c-3 174 -4 182 -23 182 -18 0 -20 -8
-23 -92 l-3 -93 -28 0 c-25 0 -29 4 -35 38 -3 20 -6 63 -6 95 0 50 -2 57 -20
57 -19 0 -20 -7 -20 -184z"/>
<path d="M3276 1923 c-9 -30 -46 -290 -46 -322 0 -33 16 -49 32 -33 6 6 13 31
15 55 4 33 10 47 24 50 23 6 25 4 33 -55 8 -52 19 -66 40 -49 11 9 10 30 -6
119 -31 171 -52 247 -70 250 -9 2 -19 -5 -22 -15z m38 -175 c6 -31 4 -38 -9
-38 -12 0 -15 12 -15 53 1 57 13 49 24 -15z"/>
<path d="M3431 1803 c1 -174 9 -238 29 -238 11 0 16 15 18 61 3 59 4 61 38 73
42 15 64 54 64 116 0 83 -41 125 -121 125 l-29 0 1 -137z m89 77 c14 -14 20
-33 20 -65 0 -32 -6 -51 -20 -65 -34 -34 -40 -24 -40 65 0 89 6 99 40 65z"/>
<path d="M3628 1934 c-5 -4 -8 -85 -8 -179 0 -139 3 -175 15 -185 24 -20 35
-2 35 59 0 55 1 57 32 66 85 26 106 171 32 220 -27 17 -96 30 -106 19z m98
-69 c28 -43 -1 -135 -43 -135 -10 0 -13 20 -13 80 0 73 2 80 20 80 11 0 27
-11 36 -25z"/>
<path d="M3797 1933 c-3 -5 11 -49 30 -98 29 -72 37 -107 40 -175 4 -78 15
-106 35 -94 4 3 8 38 8 77 0 48 10 108 29 179 16 59 26 109 23 112 -15 16 -32
2 -42 -34 -5 -22 -15 -59 -21 -82 l-11 -42 -33 79 c-31 75 -47 96 -58 78z"/>
<path d="M2211 1613 c-55 -68 -21 -130 51 -92 29 15 51 74 38 99 -16 30 -64
26 -89 -7z"/>
</g>
</svg>
